<svg xmlns="http://www.w3.org/2000/svg" viewBox="-10 -30.5 210 210" fill="none">
  <rect x="-10" y="-30.5" width="210" height="210" rx="46" fill="#04302E"/>
  <path d="M175.381 111.446C180.517 105.149 184.154 98.3693 186.141 90.7749C190.64 73.4005 187.603 57.3968 176.993 42.8749C176.618 42.3563 175.494 42.0228 174.856 42.171C171.107 43.1342 169.833 47.2092 171.745 50.8397C173.694 54.5443 175.869 58.2488 177.031 62.2127C182.055 79.1426 178.568 94.4054 166.834 107.742C164.247 110.668 164.209 112.706 166.983 115.41C169.458 117.855 171.97 120.263 174.744 122.968C173.919 123.042 173.507 123.153 173.057 123.153C159.56 123.153 146.064 123.19 132.568 123.153C110.486 123.079 92.4907 110.372 86.0799 90.0711C81.7685 76.3642 83.643 63.25 91.216 50.9879C93.353 47.5056 92.1908 43.5788 88.6667 42.2451C87.5045 41.8006 86.7547 41.9117 85.9674 42.986C77.6821 54.4331 73.9706 67.1398 75.2453 81.1801C76.5574 95.4056 82.5933 107.483 93.203 117.151C103.813 126.857 116.484 131.859 130.956 131.933C148.876 132.081 166.796 131.933 184.754 131.97C186.966 131.97 188.728 131.34 189.627 129.228C190.527 127.117 189.702 125.413 188.165 123.894C183.892 119.819 179.693 115.67 175.381 111.446Z" fill="#FBF8F1"/>
  <path d="M165.728 61.1059C165.551 60.8045 165.299 60.5541 164.996 60.3791C164.693 60.2041 164.35 60.1105 164.001 60.1074H155.999C155.65 60.1105 155.307 60.2041 155.004 60.3791C154.701 60.5541 154.449 60.8045 154.272 61.1059L150.271 68.0349C150.094 68.3426 150 68.6916 150 69.0469C150 69.4022 150.094 69.7512 150.271 70.0589L154.272 76.9608C154.449 77.2623 154.701 77.5127 155.004 77.6877C155.307 77.8627 155.65 77.9563 155.999 77.9594H164.001C164.35 77.9563 164.693 77.8627 164.996 77.6877C165.299 77.5127 165.551 77.2623 165.728 76.9608L169.729 70.0319C169.906 69.7242 170 69.3752 170 69.0199C170 68.6646 169.906 68.3156 169.729 68.0079L165.728 61.1059ZM163.373 69.0334C163.373 69.7006 163.176 70.3528 162.805 70.9075C162.434 71.4623 161.907 71.8947 161.291 72.15C160.675 72.4053 159.996 72.4721 159.342 72.342C158.688 72.2118 158.086 71.8905 157.615 71.4187C157.143 70.947 156.822 70.3459 156.691 69.6915C156.561 69.0371 156.628 68.3589 156.883 67.7425C157.139 67.126 157.571 66.5992 158.126 66.2285C158.681 65.8579 159.333 65.66 160 65.66C160.895 65.66 161.753 66.0154 162.385 66.648C163.018 67.2807 163.373 68.1387 163.373 69.0334Z" fill="#01DC82"/>
  <path d="M112.728 60.9985C112.551 60.6971 112.299 60.4467 111.996 60.2717C111.693 60.0967 111.35 60.0031 111.001 60H102.999C102.65 60.0031 102.307 60.0967 102.004 60.2717C101.701 60.4467 101.449 60.6971 101.272 60.9985L97.2712 67.9274C97.0935 68.2351 97 68.5842 97 68.9395C97 69.2948 97.0935 69.6438 97.2712 69.9515L101.272 76.8534C101.449 77.1549 101.701 77.4053 102.004 77.5803C102.307 77.7552 102.65 77.8488 102.999 77.8519H111.001C111.35 77.8488 111.693 77.7552 111.996 77.5803C112.299 77.4053 112.551 77.1549 112.728 76.8534L116.729 69.9245C116.906 69.6168 117 69.2678 117 68.9125C117 68.5572 116.906 68.2081 116.729 67.9005L112.728 60.9985ZM110.373 68.926C110.373 69.5932 110.176 70.2454 109.805 70.8001C109.434 71.3549 108.907 71.7872 108.291 72.0426C107.675 72.2979 106.996 72.3647 106.342 72.2345C105.688 72.1044 105.086 71.7831 104.615 71.3113C104.143 70.8395 103.822 70.2385 103.691 69.5841C103.561 68.9297 103.628 68.2514 103.883 67.635C104.139 67.0186 104.571 66.4918 105.126 66.1211C105.681 65.7504 106.333 65.5526 107 65.5526C107.895 65.5526 108.753 65.908 109.385 66.5406C110.018 67.1733 110.373 68.0313 110.373 68.926Z" fill="#01DC82"/>
  <path d="M88.7892 26.6366C92.6905 27.3839 96.5918 28.2059 100.531 28.8784C101.356 29.0279 102.406 28.9531 103.081 28.5795C123.001 17.1464 142.92 17.1464 162.877 28.5422C163.589 28.9531 164.602 28.9905 165.428 28.9158C170.117 28.318 174.806 27.5333 179.495 27.0476C181.595 26.8234 183.058 28.1685 183.734 30.074C184.371 31.9422 183.846 33.6235 182.346 34.7444C181.483 35.3796 180.17 35.7159 179.082 35.7906C169.554 36.1269 160.888 38.9291 153.423 44.9446C143.445 52.9776 138.118 63.402 137.481 76.2175C137.331 79.0945 135.567 81 133.017 81C130.503 81 128.628 79.2066 128.553 76.4417C128.027 55.2194 110.772 36.351 87.1761 35.7906C86.3884 35.7532 85.5256 35.7159 84.7753 35.417C82.9372 34.7444 81.7743 32.6895 82.0369 30.7839C82.2995 28.8037 84.0626 27.1597 86.0883 27.0103C86.951 26.9355 87.8514 27.0103 88.7141 27.0103C88.7517 26.8982 88.7892 26.7487 88.7892 26.6366ZM133.017 56.826C137.668 46.9248 144.608 39.4148 153.986 33.6983C139.844 27.4213 126.152 27.3839 112.122 33.7356C121.463 39.4148 128.328 46.9622 133.017 56.826Z" fill="#FBF8F1"/>
  <rect x="46" y="43" width="34" height="6" rx="3" fill="#01DC82"/>
  <rect x="53" y="98" width="22" height="6" rx="3" fill="#01DC82"/>
  <rect x="43" y="87" width="29" height="6" rx="3" fill="#01DC82"/>
  <rect x="60" y="109" width="22" height="6" rx="3" fill="#01DC82"/>
  <rect x="45" y="65" width="26" height="6" rx="3" fill="#01DC82"/>
  <rect y="65" width="23" height="6" rx="3" fill="#01DC82"/>
  <rect x="39" y="54" width="36" height="6" rx="3" fill="#01DC82"/>
  <rect x="46" y="120" width="46" height="6" rx="3" fill="#01DC82"/>
  <rect x="29" y="76" width="41" height="6" rx="3" fill="#01DC82"/>
  <rect x="23" y="43" width="20" height="6" rx="3" fill="#01DC82"/>
  <rect x="15" y="98" width="35" height="6" rx="3" fill="#01DC82"/>
  <rect x="23" y="87" width="17" height="6" rx="3" fill="#01DC82"/>
  <rect x="44" y="109" width="13" height="6" rx="3" fill="#01DC82"/>
  <rect x="26" y="65" width="16" height="6" rx="3" fill="#01DC82"/>
</svg>
